<svg xmlns="http://www.w3.org/2000/svg" width="560" height="268" viewBox="0 0 560 268" role="img" aria-label="Most variable metrics (coefficient of variation)" style="font-family:Segoe UI,Inter,Arial,sans-serif"><text x="0" y="18" font-size="14" font-weight="700" fill="#18212f">Most variable metrics (coefficient of variation)</text><text x="292" y="48" text-anchor="end" font-size="12" fill="#18212f">blogs-page: api_max_duration_ms.cold</text><rect x="300" y="36" width="190" height="16" rx="3" fill="#e8eef5"/><rect x="300" y="36" width="190.0" height="16" rx="3" fill="#b42318"/><text x="496.0" y="48" font-size="12" font-weight="600" fill="#18212f">0.38</text><text x="292" y="74" text-anchor="end" font-size="12" fill="#18212f">blogs-page: api_total_duration_ms.cold</text><rect x="300" y="62" width="190" height="16" rx="3" fill="#e8eef5"/><rect x="300" y="62" width="190.0" height="16" rx="3" fill="#b42318"/><text x="496.0" y="74" font-size="12" font-weight="600" fill="#18212f">0.38</text><text x="292" y="100" text-anchor="end" font-size="12" fill="#18212f">blogs-page: load_ms.cold</text><rect x="300" y="88" width="190" height="16" rx="3" fill="#e8eef5"/><rect x="300" y="88" width="155.0" height="16" rx="3" fill="#0f8b8d"/><text x="496.0" y="100" font-size="12" font-weight="600" fill="#18212f">0.31</text><text x="292" y="126" text-anchor="end" font-size="12" fill="#18212f">tag-filter-feature: api_max_duration_ms.warm</text><rect x="300" y="114" width="190" height="16" rx="3" fill="#e8eef5"/><rect x="300" y="114" width="155.0" height="16" rx="3" fill="#0f8b8d"/><text x="496.0" y="126" font-size="12" font-weight="600" fill="#18212f">0.31</text><text x="292" y="152" text-anchor="end" font-size="12" fill="#18212f">tag-filter-feature: api_total_duration_ms.warm</text><rect x="300" y="140" width="190" height="16" rx="3" fill="#e8eef5"/><rect x="300" y="140" width="155.0" height="16" rx="3" fill="#0f8b8d"/><text x="496.0" y="152" font-size="12" font-weight="600" fill="#18212f">0.31</text><text x="292" y="178" text-anchor="end" font-size="12" fill="#18212f">blogs-page: dom_content_loaded_ms.cold</text><rect x="300" y="166" width="190" height="16" rx="3" fill="#e8eef5"/><rect x="300" y="166" width="150.0" height="16" rx="3" fill="#0f8b8d"/><text x="496.0" y="178" font-size="12" font-weight="600" fill="#18212f">0.3</text><text x="292" y="204" text-anchor="end" font-size="12" fill="#18212f">blogs-page: fcp_ms.cold</text><rect x="300" y="192" width="190" height="16" rx="3" fill="#e8eef5"/><rect x="300" y="192" width="145.0" height="16" rx="3" fill="#0f8b8d"/><text x="496.0" y="204" font-size="12" font-weight="600" fill="#18212f">0.29</text><text x="292" y="230" text-anchor="end" font-size="12" fill="#18212f">blogs-page: lcp_ms.cold</text><rect x="300" y="218" width="190" height="16" rx="3" fill="#e8eef5"/><rect x="300" y="218" width="145.0" height="16" rx="3" fill="#0f8b8d"/><text x="496.0" y="230" font-size="12" font-weight="600" fill="#18212f">0.29</text><line x1="475.0" y1="30" x2="475.0" y2="242" stroke="#b42318" stroke-width="1.5" stroke-dasharray="4 3"/><text x="471.0" y="256" text-anchor="end" font-size="11" fill="#b42318">max CV 0.35</text></svg>